#!OML:ASF E:\id_vita\Project 1\Capture day 1\Session 1\Female.ASF
:FULLY-SPECIFIED
:DEGREES
1151
root 24.7191 13.9154 -1.28577 -157.568 88.5955 -210.966
lowerback 4.76159 0.138928 -2.17065
upperback -0.144379 0.0710575 0.183397
thorax -2.82177 0.0690137 1.40171
lowerneck -3.34036 -0.731913 -7.17318
upperneck -6.28424 -0.375628 8.02649
head -1.4006 -0.0790069 3.91998
rclavicle 8.49804e-015 -4.94974e-014
rhumerus 25.521 29.874 -69.7804
rradius 27.2648
rwrist 18.4057
rhand -45.6192 -94.075
rfingers 7.12502
rthumb -18.3794 64.9233
lclavicle 8.49804e-015 -4.94974e-014
lhumerus 34.489 -27.0229 70.9182
lradius 24.8901
lwrist -33.3039
lhand -58.5014 -93.4016
lfingers 7.12502
lthumb -30.7241 1679.14
rfemur -50.2524 4.17914 27.6892
rtibia 62.3233
rfoot -26.3458 -7.67101
rtoes -18.2592
lfemur -102.47 -1.9855 -18.0204
ltibia 93.1242
lfoot -23.7427 3.93262
ltoes -4.8958
1152
root 24.8119 13.9224 -1.29371 -163.104 88.7037 -216.453
lowerback 4.7782 0.190989 -2.29208
upperback -0.130961 0.132061 0.135504
thorax -2.81998 0.100706 1.4162
lowerneck -3.07417 -0.696079 -7.13189
upperneck -6.47534 -0.346907 7.78663
head -1.5128 -0.0680791 3.83065
rclavicle 6.32135e-014 1.11568e-013
rhumerus 25.2916 29.6207 -70.0242
rradius 27.2061
rwrist 18.6296
rhand -46.3819 -94.7818
rfingers 7.12502
rthumb -19.113 65.7009
lclavicle 6.32135e-014 1.11568e-013
lhumerus 34.5836 -27.2394 70.8688
lradius 24.7523
lwrist -33.2668
lhand -58.2217 -93.5135
lfingers 7.12502
lthumb -30.4574 1678.98
rfemur -49.4735 4.31022 27.4162
rtibia 61.6298
rfoot -26.249 -7.42174
rtoes -16.853
lfemur -102.911 -2.1673 -18.3081
ltibia 91.6912
lfoot -23.6396 3.47005
ltoes -2.72999
1153
root 24.9054 13.9261 -1.30278 -170.088 88.832 -223.42
lowerback 4.72583 0.223057 -2.46821
upperback -0.185612 0.16457 0.109233
thorax -2.84885 0.119976 1.48572
lowerneck -2.79109 -0.688441 -7.19664
upperneck -6.55044 -0.356412 7.71534
head -1.5876 -0.0770881 3.82127
rclavicle 3.51849e-014 6.30644e-014
rhumerus 25.1436 29.8369 -69.9685
rradius 27.1251
rwrist 18.631
rhand -46.4004 -94.6595
rfingers 7.12502
rthumb -19.1308 65.5803
lclavicle 3.51849e-014 6.30644e-014
lhumerus 34.2992 -27.2699 71.161
lradius 24.5085
lwrist -33.45
lhand -58.4553 -92.7965
lfingers 7.12502
lthumb -30.6801 1679.74
rfemur -48.7866 4.53007 27.1491
rtibia 60.9555
rfoot -26.0821 -7.31925
rtoes -15.3605
lfemur -103.325 -2.44609 -18.4061
ltibia 90.1347
lfoot -24.1979 3.23699
ltoes -3.47684
1154
root 24.9993 13.9292 -1.31197 -176.585 88.9556 -229.983
lowerback 4.59113 0.266962 -2.53181
upperback -0.301566 0.219 0.0307964
thorax -2.89515 0.14888 1.43687
lowerneck -2.47364 -0.675668 -7.20562
upperneck -6.56357 -0.363201 7.70009
head -1.64856 -0.0878959 3.82049
rclavicle -1.68967e-015 1.60022e-014
rhumerus 24.6251 29.4338 -70.5741
rradius 27.1011
rwrist 19.1359
rhand -45.9133 -94.8604
rfingers 7.12502
rthumb -18.6623 65.7356
lclavicle -1.68967e-015 1.60022e-014
lhumerus 33.9699 -27.5254 71.2718
lradius 24.3934
lwrist -33.2224
lhand -58.7198 -92.7715
lfingers 7.12502
lthumb -30.9323 1679.81
rfemur -48.2185 4.65321 27.0177
rtibia 60.1899
rfoot -25.8581 -7.66245
rtoes -16.0703
lfemur -103.774 -2.74268 -18.446
ltibia 88.5165
lfoot -25.0379 3.67904
ltoes -6.03212
1155
root 25.0928 13.9309 -1.32169 -189.874 89.0633 -243.256
lowerback 4.59095 0.337805 -2.66073
upperback -0.337858 0.302099 -0.100678
thorax -2.9362 0.192177 1.36782
lowerneck -2.58249 -0.644567 -6.98142
upperneck -6.29929 -0.342961 7.48499
head -1.54243 -0.0803039 3.69583
rclavicle -1.09332e-014 -2.5842e-015
rhumerus 24.2003 28.9124 -71.1574
rradius 27.0671
rwrist 19.5416
rhand -45.4553 -95.1325
rfingers 7.12502
rthumb -18.2218 65.966
lclavicle -1.09332e-014 -2.5842e-015
lhumerus 33.8613 -27.8708 71.1804
lradius 24.4251
lwrist -32.984
lhand -58.5423 -93.7407
lfingers 7.12502
lthumb -30.7631 1678.81
rfemur -47.5249 4.64379 26.8344
rtibia 59.4169
rfoot -25.6674 -8.09123
rtoes -17.4652
lfemur -103.991 -2.95006 -18.7771
ltibia 86.9436
lfoot -25.511 4.76073
ltoes -9.63138
